<?xml version="1.0" encoding="utf-8"?>
<!-- Generator: Adobe Illustrator 21.1.0, SVG Export Plug-In . SVG Version: 6.00 Build 0)  -->
<svg version="1.1" id="Capa_1" xmlns="http://www.w3.org/2000/svg" xmlns:xlink="http://www.w3.org/1999/xlink" x="0px" y="0px"
	 viewBox="0 0 250 250" style="enable-background:new 0 0 250 250;" xml:space="preserve">
<style type="text/css">
	.st0{fill:#808080;}
	.st1{fill:#FFFFFF;}
</style>
<g>
	<rect class="st0" width="250" height="250"/>
	<path class="st1" d="M196.9,55.2L29.7,120.3c-5.4,2.1-5.1,9.9,0.5,11.5l42.5,12.5l15.9,50.3c1.7,5.3,8.3,6.8,12.2,2.9l22-22.4
		l43.1,31.6c5.3,3.9,12.8,1,14.1-5.4L208.4,65C209.8,58.3,203.2,52.7,196.9,55.2z M175.9,85.5l-77.7,68.7c-0.8,0.7-1.3,1.6-1.4,2.7
		l-3,26.6c-0.1,0.9-1.3,1-1.6,0.1L80,143.9c-0.6-1.8,0.2-3.8,1.8-4.8l91.7-56.9C175.6,80.9,177.8,83.8,175.9,85.5z"/>
</g>
</svg>
