<?xml version="1.0" encoding="utf-8"?>
<!-- Generator: Adobe Illustrator 21.1.0, SVG Export Plug-In . SVG Version: 6.00 Build 0)  -->
<svg version="1.1" id="Capa_1" xmlns="http://www.w3.org/2000/svg" xmlns:xlink="http://www.w3.org/1999/xlink" x="0px" y="0px"
	 viewBox="0 0 250 250" style="enable-background:new 0 0 250 250;" xml:space="preserve">
<style type="text/css">
	.st0{fill:#808080;}
</style>
<path class="st0" d="M0,0v250h250V0H0z M145.7,135.5c-4.3,28.1-25.2,44.2-52.3,44.2c-30.5,0-55.2-24.7-55.2-55.2
	c0-30.5,24.7-55.2,55.2-55.2c14.7,0,27.6,5.3,37,14.4l-15.8,15.8c-5.4-5.4-12.7-8.3-21.2-8.3c-17.9,0-32.5,15.3-32.5,33.2
	c0,17.9,14.5,32.8,32.5,32.8c15,0,26.4-7.3,29.7-21.8H93.4v-22.2h52.2c0.6,3.6,0.9,7.3,0.9,11.2C146.5,128.4,146.3,132,145.7,135.5z
	 M212,128.6h-19.3V148h-13.7v-19.3h-19.3v-13.7h19.3V95.6h13.7v19.3H212V128.6z"/>
</svg>
