<?xml version="1.0" encoding="utf-8"?>
<!-- Generator: Adobe Illustrator 21.1.0, SVG Export Plug-In . SVG Version: 6.00 Build 0)  -->
<svg version="1.1" id="Capa_1" xmlns="http://www.w3.org/2000/svg" xmlns:xlink="http://www.w3.org/1999/xlink" x="0px" y="0px"
	 viewBox="0 0 250 250" style="enable-background:new 0 0 250 250;" xml:space="preserve">
<style type="text/css">
	.st0{fill:#808080;}
	.st1{fill:#FFFFFF;}
</style>
<g>
	<g>
		<rect class="st0" width="250" height="250"/>
	</g>
	<path class="st1" d="M33.1,185.3C49.8,195.9,69.5,202,90.7,202c59.4,0,107.6-48.2,107.6-107.6c0-1.5,0-3-0.1-4.4
		c2.1-1.7,15.4-12.3,18.7-19.2c0,0-10.8,4.5-21.4,5.5c0,0,0,0-0.1,0c0,0,0,0,0.1,0c1-0.7,14.6-9.9,16.4-21c0,0-7.6,4.1-18.3,7.6
		c-1.8,0.6-3.6,1.2-5.5,1.7c-6.9-7.4-16.7-11.9-27.6-11.9c-20.9,0-37.8,16.9-37.8,37.7c0,2.9,0.3,5.8,1,8.6
		c-2.9-0.1-47.3-2.6-77.5-39.2c0,0-18,24.6,10.8,50c0,0-8.8-0.3-16.3-4.9c0,0-2.8,29.9,29.8,37.5c0,0-6.4,2.4-16.7,0.7
		c0,0,5.7,24.1,34.7,26.4C88.6,169.5,65.6,190.2,33.1,185.3L33.1,185.3z"/>
</g>
</svg>
